<?xml version="1.0" encoding="UTF-8"?>
<svg width="385px" height="339px" viewBox="0 0 385 339" version="1.1" xmlns="http://www.w3.org/2000/svg" xmlns:xlink="http://www.w3.org/1999/xlink">
    <!-- Generator: Sketch 50.2 (55047) - http://www.bohemiancoding.com/sketch -->
    <title>lotuswing</title>
    <desc>Created with Sketch.</desc>
    <defs>
        <path d="M364.53887,114.659543 C363.594423,104.430913 359.732353,93.99351 352.95266,83.3473351 C342.78312,67.3780728 324.359488,46.5485634 309.288756,34.5986611 C294.218024,22.6487587 276.769435,13.0923006 276.769435,13.0923006 C257.582414,0.798432628 228.325936,-2.83733959 189,2.18498396 C197.155567,36.7204969 206.385279,63.7746139 216.689136,83.3473351 C232.144922,112.706417 238.756621,124.426108 260.041303,137.131692 C274.231092,145.602082 297.172108,151.138822 328.864351,153.741915 C332.757256,141.065658 336.267507,132.935699 339.395103,129.352039 C342.522698,125.768379 350.903954,120.87088 364.53887,114.659543 Z" id="path-1"></path>
        <path d="M175.53887,114.659543 C174.594423,104.430913 170.732353,93.99351 163.95266,83.3473351 C153.78312,67.3780728 135.359488,46.5485634 120.288756,34.5986611 C105.218024,22.6487587 87.7694348,13.0923006 87.7694348,13.0923006 C68.5824141,0.798432628 39.3259359,-2.83733959 2.84217094e-14,2.18498396 C8.15556672,36.7204969 17.3852787,63.7746139 27.689136,83.3473351 C43.1449219,112.706417 49.7566208,124.426108 71.0413034,137.131692 C85.2310918,145.602082 108.172108,151.138822 139.864351,153.741915 C143.757256,141.065658 147.267507,132.935699 150.395103,129.352039 C153.522698,125.768379 161.903954,120.87088 175.53887,114.659543 Z" id="path-2"></path>
        <path d="M364.53887,279.659543 C363.594423,269.430913 359.732353,258.99351 352.95266,248.347335 C342.78312,232.378073 324.359488,211.548563 309.288756,199.598661 C294.218024,187.648759 276.769435,178.092301 276.769435,178.092301 C257.582414,165.798433 228.325936,162.16266 189,167.184984 C197.155567,201.720497 206.385279,228.774614 216.689136,248.347335 C232.144922,277.706417 238.756621,289.426108 260.041303,302.131692 C274.231092,310.602082 297.172108,316.138822 328.864351,318.741915 C332.757256,306.065658 336.267507,297.935699 339.395103,294.352039 C342.522698,290.768379 350.903954,285.87088 364.53887,279.659543 Z" id="path-3"></path>
        <path d="M175.53887,279.659543 C174.594423,269.430913 170.732353,258.99351 163.95266,248.347335 C153.78312,232.378073 135.359488,211.548563 120.288756,199.598661 C105.218024,187.648759 87.7694348,178.092301 87.7694348,178.092301 C68.5824141,165.798433 39.3259359,162.16266 2.84217094e-14,167.184984 C8.15556672,201.720497 17.3852787,228.774614 27.689136,248.347335 C43.1449219,277.706417 49.7566208,289.426108 71.0413034,302.131692 C85.2310918,310.602082 108.172108,316.138822 139.864351,318.741915 C143.757256,306.065658 147.267507,297.935699 150.395103,294.352039 C153.522698,290.768379 161.903954,285.87088 175.53887,279.659543 Z" id="path-4"></path>
        <circle id="path-5" cx="182" cy="159" r="50"></circle>
    </defs>
    <g id="Page-1" stroke="none" stroke-width="1" fill="none" fill-rule="evenodd">
        <g id="Artboard" transform="translate(-308.000000, -250.000000)">
            <g id="lotuswing" transform="translate(318.000000, 260.000000)">
                <g id="Group" stroke-width="1" fill-rule="evenodd" transform="translate(182.000000, 160.000000) rotate(90.000000) translate(-182.000000, -160.000000) translate(167.000000, 35.000000)" fill="#000000">
                    <path d="M14.4,0 C24.2930637,40.8706181 29.2395955,82.5372847 29.2395955,125 C29.2395955,167.462715 24.2930637,209.129382 14.4,250" id="Line"></path>
                    <path d="M0,0 C9.89306369,40.8706181 14.8395955,82.5372847 14.8395955,125 C14.8395955,167.462715 9.89306369,209.129382 0,250" id="Line" transform="translate(7.419798, 125.000000) scale(-1, 1) translate(-7.419798, -125.000000) "></path>
                </g>
                <path d="" id="Path-2" stroke="#979797" stroke-width="1"></path>
                <g id="Path-4" transform="translate(276.769435, 76.870957) scale(-1, 1) translate(-276.769435, -76.870957) ">
                    <use fill="#31C7FC" fill-rule="evenodd" xlink:href="#path-1"></use>
                    <path stroke="#AEE5F9" stroke-width="9" d="M359.671833,111.949553 C358.358087,103.45653 354.867875,94.7323633 349.156967,85.7645067 C339.048916,69.8918006 320.885196,49.5366901 306.492874,38.1247135 C304.784623,36.7702053 302.995687,35.4081815 301.134946,34.0422136 C295.336276,29.7854172 289.105496,25.6759921 282.872892,21.875177 C280.690623,20.5443689 278.665608,19.3481736 276.851062,18.3060401 C276.218588,17.9427967 275.658505,17.625243 275.177447,17.3557935 C274.893138,17.1965466 274.701045,17.0901837 274.607797,17.039112 L274.472037,16.9647576 L274.341708,16.8812505 C256.99815,5.76856076 230.403297,2.07103589 194.556797,6.05286614 C202.337609,37.909885 211.056551,62.9878135 220.671065,81.2510898 C230.393817,99.7199709 234.536479,106.910735 239.757351,113.755445 C245.703932,121.551583 252.283387,127.259941 262.347822,133.26776 C275.304198,141.001882 296.444638,146.282829 325.655604,148.947151 C329.301779,137.649961 332.659639,130.225962 336.004709,126.393115 C339.437529,122.459723 347.206439,117.780631 359.671833,111.949553 Z" stroke-linejoin="square"></path>
                    <use stroke="#3B5B6F" stroke-width="19" xlink:href="#path-1"></use>
                    <use stroke="#F293D7" stroke-width="6" xlink:href="#path-1"></use>
                </g>
                <g id="Path-4">
                    <use fill="#FFFFFF" fill-rule="evenodd" xlink:href="#path-2"></use>
                    <path stroke="#A39797" stroke-width="9" d="M170.671833,111.949553 C169.358087,103.45653 165.867875,94.7323633 160.156967,85.7645067 C150.048916,69.8918006 131.885196,49.5366901 117.492874,38.1247135 C115.784623,36.7702053 113.995687,35.4081815 112.134946,34.0422136 C106.336276,29.7854172 100.105496,25.6759921 93.872892,21.875177 C91.6906234,20.5443689 89.6656078,19.3481736 87.8510616,18.3060401 C87.2185879,17.9427967 86.6585045,17.625243 86.1774472,17.3557935 C85.8931384,17.1965466 85.7010454,17.0901837 85.6077966,17.039112 L85.4720371,16.9647576 L85.3417077,16.8812505 C67.9981501,5.76856076 41.4032966,2.07103589 5.55679746,6.05286614 C13.3376094,37.909885 22.0565511,62.9878135 31.6710646,81.2510898 C41.3938167,99.7199709 45.5364794,106.910735 50.7573506,113.755445 C56.703932,121.551583 63.2833872,127.259941 73.347822,133.26776 C86.3041977,141.001882 107.444638,146.282829 136.655604,148.947151 C140.301779,137.649961 143.659639,130.225962 147.004709,126.393115 C150.437529,122.459723 158.206439,117.780631 170.671833,111.949553 Z" stroke-linejoin="square"></path>
                    <use stroke="#3B5B6F" stroke-width="19" xlink:href="#path-2"></use>
                    <use stroke="#F293D7" stroke-width="6" xlink:href="#path-2"></use>
                </g>
                <g id="Path-4" transform="translate(276.769435, 241.870957) scale(-1, -1) translate(-276.769435, -241.870957) ">
                    <use fill="#45309A" fill-rule="evenodd" xlink:href="#path-3"></use>
                    <path stroke="#B494C9" stroke-width="9" d="M359.671833,276.949553 C358.358087,268.45653 354.867875,259.732363 349.156967,250.764507 C339.048916,234.891801 320.885196,214.53669 306.492874,203.124714 C304.784623,201.770205 302.995687,200.408181 301.134946,199.042214 C295.336276,194.785417 289.105496,190.675992 282.872892,186.875177 C280.690623,185.544369 278.665608,184.348174 276.851062,183.30604 C276.218588,182.942797 275.658505,182.625243 275.177447,182.355793 C274.893138,182.196547 274.701045,182.090184 274.607797,182.039112 L274.472037,181.964758 L274.341708,181.88125 C256.99815,170.768561 230.403297,167.071036 194.556797,171.052866 C202.337609,202.909885 211.056551,227.987814 220.671065,246.25109 C230.393817,264.719971 234.536479,271.910735 239.757351,278.755445 C245.703932,286.551583 252.283387,292.259941 262.347822,298.26776 C275.304198,306.001882 296.444638,311.282829 325.655604,313.947151 C329.301779,302.649961 332.659639,295.225962 336.004709,291.393115 C339.437529,287.459723 347.206439,282.780631 359.671833,276.949553 Z" stroke-linejoin="square"></path>
                    <use stroke="#3B5B6F" stroke-width="19" xlink:href="#path-3"></use>
                    <use stroke="#F293D7" stroke-width="6" xlink:href="#path-3"></use>
                </g>
                <g id="Path-4" transform="translate(87.769435, 241.870957) scale(1, -1) translate(-87.769435, -241.870957) ">
                    <use fill="#9CF9E0" fill-rule="evenodd" xlink:href="#path-4"></use>
                    <path stroke="#ECFBF7" stroke-width="9" d="M170.671833,276.949553 C169.358087,268.45653 165.867875,259.732363 160.156967,250.764507 C150.048916,234.891801 131.885196,214.53669 117.492874,203.124714 C115.784623,201.770205 113.995687,200.408181 112.134946,199.042214 C106.336276,194.785417 100.105496,190.675992 93.872892,186.875177 C91.6906234,185.544369 89.6656078,184.348174 87.8510616,183.30604 C87.2185879,182.942797 86.6585045,182.625243 86.1774472,182.355793 C85.8931384,182.196547 85.7010454,182.090184 85.6077966,182.039112 L85.4720371,181.964758 L85.3417077,181.88125 C67.9981501,170.768561 41.4032966,167.071036 5.55679746,171.052866 C13.3376094,202.909885 22.0565511,227.987814 31.6710646,246.25109 C41.3938167,264.719971 45.5364794,271.910735 50.7573506,278.755445 C56.703932,286.551583 63.2833872,292.259941 73.347822,298.26776 C86.3041977,306.001882 107.444638,311.282829 136.655604,313.947151 C140.301779,302.649961 143.659639,295.225962 147.004709,291.393115 C150.437529,287.459723 158.206439,282.780631 170.671833,276.949553 Z" stroke-linejoin="square"></path>
                    <use stroke="#3B5B6F" stroke-width="19" xlink:href="#path-4"></use>
                    <use stroke="#F293D7" stroke-width="6" xlink:href="#path-4"></use>
                </g>
                <g id="Oval">
                    <use fill="#FFFA77" fill-rule="evenodd" xlink:href="#path-5"></use>
                    <circle stroke="#3B5B6F" stroke-width="6" cx="182" cy="159" r="53"></circle>
                    <circle stroke="#E5D3A4" stroke-width="8" stroke-linejoin="square" cx="182" cy="159" r="46"></circle>
                    <use stroke="#000000" stroke-width="4" xlink:href="#path-5"></use>
                </g>
                <g id="Group" stroke-width="1" fill-rule="evenodd" transform="translate(166.000000, 40.000000)" fill="#000000">
                    <path d="M18,0 C27.8930637,39.2357933 32.8395955,79.2357933 32.8395955,120 C32.8395955,160.764207 27.8930637,200.764207 18,240" id="Line"></path>
                    <path d="M-0.25,0 C9.64306369,39.2357933 14.5895955,79.2357933 14.5895955,120 C14.5895955,160.764207 9.64306369,200.764207 -0.25,240" id="Line" transform="translate(7.169798, 120.000000) scale(-1, 1) translate(-7.169798, -120.000000) "></path>
                </g>
            </g>
        </g>
    </g>
</svg>